<svg width="22" height="16" viewBox="0 0 22 16" fill="none" xmlns="http://www.w3.org/2000/svg">
<path d="M21.0575 2.94515C20.938 2.50118 20.7039 2.09638 20.3788 1.77127C20.0537 1.44616 19.6489 1.21215 19.205 1.09265C17.57 0.650147 11 0.650146 11 0.650146C11 0.650146 4.42995 0.650147 2.79495 1.09265C2.35098 1.21215 1.94619 1.44616 1.62108 1.77127C1.29597 2.09638 1.06196 2.50118 0.942454 2.94515C0.637163 4.6126 0.489014 6.30501 0.499954 8.00014C0.489014 9.69528 0.637163 11.3877 0.942454 13.0551C1.06196 13.4991 1.29597 13.9039 1.62108 14.229C1.94619 14.5541 2.35098 14.7881 2.79495 14.9076C4.42995 15.3501 11 15.3501 11 15.3501C11 15.3501 17.57 15.3501 19.205 14.9076C19.6489 14.7881 20.0537 14.5541 20.3788 14.229C20.7039 13.9039 20.938 13.4991 21.0575 13.0551C21.3627 11.3877 21.5109 9.69528 21.5 8.00014C21.5109 6.30501 21.3627 4.6126 21.0575 2.94515ZM8.89995 11.1501V4.85015L14.3525 8.00014L8.89995 11.1501Z" fill="white"/>
</svg>
